<?xml version="1.0" standalone="no"?>
<!DOCTYPE svg PUBLIC "-//W3C//DTD SVG 20010904//EN"
 "http://www.w3.org/TR/2001/REC-SVG-20010904/DTD/svg10.dtd">
<svg version="1.0" xmlns="http://www.w3.org/2000/svg"
 width="128.000000pt" height="128.000000pt" viewBox="0 0 128.000000 128.000000"
 preserveAspectRatio="xMidYMid meet">
<metadata>
Created by potrace 1.11, written by Peter Selinger 2001-2013
</metadata>
<g transform="translate(0.000000,128.000000) scale(0.100000,-0.100000)"
fill="#000000" stroke="none">
<path d="M500 1264 c-234 -50 -436 -254 -485 -489 -95 -454 306 -855 760 -760
238 50 440 252 490 490 95 456 -309 857 -765 759z m280 -79 c195 -52 353 -210
405 -405 19 -70 19 -210 0 -280 -26 -98 -74 -180 -150 -255 -75 -76 -157 -124
-255 -150 -70 -19 -210 -19 -280 0 -195 52 -353 210 -405 405 -19 70 -19 210
0 280 51 192 209 352 401 405 66 18 216 18 284 0z"/>
<path d="M618 859 c-15 -8 -18 -25 -18 -94 l0 -85 -85 0 c-74 0 -86 -2 -95
-20 -8 -14 -8 -26 0 -40 9 -18 21 -20 95 -20 l85 0 0 -85 c0 -74 2 -86 20 -95
14 -8 26 -8 40 0 18 9 20 21 20 95 l0 85 85 0 c74 0 86 2 95 20 8 14 8 26 0
40 -9 18 -21 20 -95 20 l-85 0 0 85 c0 73 -3 86 -19 95 -23 12 -22 12 -43 -1z"/>
</g>
</svg>
